{
  "title": "Game Of Thrones S05E02 HDTV x264-Xclusive4iPT",
  "uid": 11811306,
  "size": 388899911,
  "categoryP": "video",
  "categoryS": "tv_shows",
  "magnet": "?xt=urn:btih:66b77711f441757bd71eb309a25a7ed8b3900ec9&amp;dn=Game+Of+Thrones+S05E02+HDTV+x264-Xclusive4iPT&amp;tr=udp%3A%2F%2Ftracker.openbittorrent.com%3A80&amp;tr=udp%3A%2F%2Fopen.demonii.com%3A1337&amp;tr=udp%3A%2F%2Ftracker.coppersurfer.tk%3A6969&amp;tr=udp%3A%2F%2Fexodus.desync.com%3A6969",
  "seeders": 148,
  "leechers": 2,
  "uploader": "beta2008x",
  "files": 1,
  "time": 1428810270,
  "description": "Complete name                            : Game.of.Thrones.S05E02.HDTV.x264-Xclusive.mp4\nFormat                                   : MPEG-4\nFormat profile                           : Base Media\nCodec ID                                 : isom\nFile size                                : 371 MiB\nDuration                                 : 55mn 38s\nOverall bit rate                         : 932 Kbps\nWriting application                      : Lavf53.31.100\n\nVideo\nID                                       : 1\nFormat                                   : AVC\nFormat/Info                              : Advanced Video Codec\nFormat profile                           : &lt;a class=&quot;__cf_email__&quot; href=&quot;/cdn-cgi/l/email-protection&quot; data-cfemail=&quot;044c6d636c4448372a35&quot;&gt;[email&amp;#160;protected]&lt;/a&gt;&lt;script cf-hash='f9e31' type=&quot;text/javascript&quot;&gt;\n/* &lt;![CDATA[ */!function(){try{var t=&quot;currentScript&quot;in document?document.currentScript:function(){for(var t=document.getElementsByTagName(&quot;script&quot;),e=t.length;e--;)if(t[e].getAttribute(&quot;cf-hash&quot;))return t[e]}();if(t&amp;&amp;t.previousSibling){var e,r,n,i,c=t.previousSibling,a=c.getAttribute(&quot;data-cfemail&quot;);if(a){for(e=&quot;&quot;,r=parseInt(a.substr(0,2),16),n=2;a.length-n;n+=2)i=parseInt(a.substr(n,2),16)^r,e+=String.fromCharCode(i);e=document.createTextNode(e),c.parentNode.replaceChild(e,c)}}}catch(u){}}();/* ]]&gt; */&lt;/script&gt;\nFormat settings, CABAC                   : Yes\nFormat settings, ReFrames                : 5 frames\nFormat settings, GOP                     : M=2, N=15\nCodec ID                                 : avc1\nCodec ID/Info                            : Advanced Video Coding\nDuration                                 : 55mn 38s\nBit rate                                 : 779 Kbps\nWidth                                    : 720 pixels\nHeight                                   : 392 pixels\nDisplay aspect ratio                     : 1.85:1\nFrame rate mode                          : Variable\nFrame rate                               : 23.976 fps\nMinimum frame rate                       : 23.952 fps\nMaximum frame rate                       : 24.000 fps\nColor space                              : YUV\nChroma subsampling                       : 4:2:0\nBit depth                                : 8 bits\nScan type                                : Progressive\nBits/(Pixel*Frame)                       : 0.115\nStream size                              : 310 MiB (84%)\n\nAudio\nID                                       : 2\nFormat                                   : AAC\nFormat/Info                              : Advanced Audio Codec\nFormat profile                           : LC\nCodec ID                                 : 40\nDuration                                 : 55mn 38s\nDuration_LastFrame                       : -21ms\nBit rate mode                            : Constant\nBit rate                                 : 147 Kbps\nChannel(s)                               : 2 channels\nChannel positions                        : Front: L R\nSampling rate                            : 48.0 KHz\nCompression mode                         : Lossy\nStream size                              : 58.5 MiB (16%)",
  "parsed": {
    "xt": "urn:btih:66b77711f441757bd71eb309a25a7ed8b3900ec9",
    "dn": "Game Of Thrones S05E02 HDTV x264-Xclusive4iPT",
    "tr": [
      "udp://exodus.desync.com:6969",
      "udp://open.demonii.com:1337",
      "udp://tracker.coppersurfer.tk:6969",
      "udp://tracker.openbittorrent.com:80"
    ],
    "infoHash": "66b77711f441757bd71eb309a25a7ed8b3900ec9",
    "infoHashBuffer": {
      "type": "Buffer",
      "data": [
        102,
        183,
        119,
        17,
        244,
        65,
        117,
        123,
        215,
        30,
        179,
        9,
        162,
        90,
        126,
        216,
        179,
        144,
        14,
        201
      ]
    },
    "name": "Game Of Thrones S05E02 HDTV x264-Xclusive4iPT",
    "announce": [
      "udp://exodus.desync.com:6969",
      "udp://open.demonii.com:1337",
      "udp://tracker.coppersurfer.tk:6969",
      "udp://tracker.openbittorrent.com:80"
    ],
    "urlList": []
  },
  "previous": 4,
  "peers": 1,
  "last_updated": "2016-12-27T02:30:22.827Z"
}